<mxfile host="app.diagrams.net" modified="2023-07-03T10:13:48.575Z" agent="Mozilla/5.0 (Windows NT 10.0; Win64; x64; rv:109.0) Gecko/20100101 Firefox/114.0" etag="IuI-RP4mzKLWpS9LXQDN" version="21.5.2" type="device">
  <diagram name="Page-1" id="dLu7HFVvqdKa3qHjp0GM">
    <mxGraphModel dx="1470" dy="726" grid="1" gridSize="10" guides="1" tooltips="1" connect="1" arrows="1" fold="1" page="1" pageScale="1" pageWidth="1100" pageHeight="850" math="0" shadow="0">
      <root>
        <mxCell id="0" />
        <mxCell id="1" parent="0" />
        <mxCell id="fszhRgOIDEVP251M5NDS-1" value="Raspberry Pi Zero 2W" style="rounded=0;whiteSpace=wrap;html=1;" vertex="1" parent="1">
          <mxGeometry x="360" y="350" width="200" height="60" as="geometry" />
        </mxCell>
        <mxCell id="fszhRgOIDEVP251M5NDS-2" value="Kameramodul" style="rounded=0;whiteSpace=wrap;html=1;" vertex="1" parent="1">
          <mxGeometry x="90" y="350" width="120" height="60" as="geometry" />
        </mxCell>
        <mxCell id="fszhRgOIDEVP251M5NDS-3" value="" style="rounded=0;whiteSpace=wrap;html=1;" vertex="1" parent="1">
          <mxGeometry x="710" y="300" width="140" height="170" as="geometry" />
        </mxCell>
        <mxCell id="fszhRgOIDEVP251M5NDS-4" value="5x IR LEDs" style="rounded=0;whiteSpace=wrap;html=1;" vertex="1" parent="1">
          <mxGeometry x="260" y="210" width="120" height="60" as="geometry" />
        </mxCell>
        <mxCell id="fszhRgOIDEVP251M5NDS-5" value="5x IR LEDs" style="rounded=0;whiteSpace=wrap;html=1;" vertex="1" parent="1">
          <mxGeometry x="410" y="210" width="120" height="60" as="geometry" />
        </mxCell>
        <mxCell id="fszhRgOIDEVP251M5NDS-6" value="UV-C LEDs" style="rounded=0;whiteSpace=wrap;html=1;" vertex="1" parent="1">
          <mxGeometry x="570" y="210" width="120" height="60" as="geometry" />
        </mxCell>
        <mxCell id="fszhRgOIDEVP251M5NDS-7" value="CSI" style="endArrow=none;html=1;rounded=0;" edge="1" parent="1" source="fszhRgOIDEVP251M5NDS-2" target="fszhRgOIDEVP251M5NDS-1">
          <mxGeometry width="50" height="50" relative="1" as="geometry">
            <mxPoint x="520" y="400" as="sourcePoint" />
            <mxPoint x="570" y="350" as="targetPoint" />
          </mxGeometry>
        </mxCell>
        <mxCell id="fszhRgOIDEVP251M5NDS-8" value="USB" style="endArrow=none;html=1;rounded=0;" edge="1" parent="1" source="fszhRgOIDEVP251M5NDS-1" target="fszhRgOIDEVP251M5NDS-3">
          <mxGeometry width="50" height="50" relative="1" as="geometry">
            <mxPoint x="520" y="400" as="sourcePoint" />
            <mxPoint x="570" y="350" as="targetPoint" />
          </mxGeometry>
        </mxCell>
        <mxCell id="fszhRgOIDEVP251M5NDS-9" value="GPIO" style="endArrow=none;html=1;rounded=0;" edge="1" parent="1" source="fszhRgOIDEVP251M5NDS-1" target="fszhRgOIDEVP251M5NDS-4">
          <mxGeometry width="50" height="50" relative="1" as="geometry">
            <mxPoint x="520" y="400" as="sourcePoint" />
            <mxPoint x="570" y="350" as="targetPoint" />
          </mxGeometry>
        </mxCell>
        <mxCell id="fszhRgOIDEVP251M5NDS-10" value="GPIO" style="endArrow=none;html=1;rounded=0;" edge="1" parent="1" source="fszhRgOIDEVP251M5NDS-1" target="fszhRgOIDEVP251M5NDS-5">
          <mxGeometry width="50" height="50" relative="1" as="geometry">
            <mxPoint x="520" y="400" as="sourcePoint" />
            <mxPoint x="570" y="350" as="targetPoint" />
          </mxGeometry>
        </mxCell>
        <mxCell id="fszhRgOIDEVP251M5NDS-11" value="GPIO" style="endArrow=none;html=1;rounded=0;" edge="1" parent="1" source="fszhRgOIDEVP251M5NDS-1" target="fszhRgOIDEVP251M5NDS-6">
          <mxGeometry width="50" height="50" relative="1" as="geometry">
            <mxPoint x="520" y="400" as="sourcePoint" />
            <mxPoint x="570" y="350" as="targetPoint" />
          </mxGeometry>
        </mxCell>
        <mxCell id="fszhRgOIDEVP251M5NDS-12" value="Temperatur- &amp;amp; Feuchtigkeitssensor" style="rounded=0;whiteSpace=wrap;html=1;" vertex="1" parent="1">
          <mxGeometry x="400" y="470" width="120" height="60" as="geometry" />
        </mxCell>
        <mxCell id="fszhRgOIDEVP251M5NDS-13" value="I&quot;C" style="endArrow=none;html=1;rounded=0;" edge="1" parent="1" source="fszhRgOIDEVP251M5NDS-12" target="fszhRgOIDEVP251M5NDS-1">
          <mxGeometry width="50" height="50" relative="1" as="geometry">
            <mxPoint x="520" y="400" as="sourcePoint" />
            <mxPoint x="570" y="350" as="targetPoint" />
          </mxGeometry>
        </mxCell>
        <mxCell id="fszhRgOIDEVP251M5NDS-14" value="Stromversorgung" style="rounded=0;whiteSpace=wrap;html=1;" vertex="1" parent="1">
          <mxGeometry x="720" y="330" width="120" height="60" as="geometry" />
        </mxCell>
        <mxCell id="fszhRgOIDEVP251M5NDS-15" value="Netzwerkadapter" style="rounded=0;whiteSpace=wrap;html=1;" vertex="1" parent="1">
          <mxGeometry x="720" y="400" width="120" height="60" as="geometry" />
        </mxCell>
        <mxCell id="fszhRgOIDEVP251M5NDS-16" value="" style="endArrow=none;html=1;rounded=0;exitX=1;exitY=0.5;exitDx=0;exitDy=0;" edge="1" parent="1" source="fszhRgOIDEVP251M5NDS-3" target="fszhRgOIDEVP251M5NDS-20">
          <mxGeometry width="50" height="50" relative="1" as="geometry">
            <mxPoint x="520" y="400" as="sourcePoint" />
            <mxPoint x="900" y="385" as="targetPoint" />
          </mxGeometry>
        </mxCell>
        <mxCell id="fszhRgOIDEVP251M5NDS-18" value="PoE-Adapter" style="text;html=1;strokeColor=none;fillColor=none;align=center;verticalAlign=middle;whiteSpace=wrap;rounded=0;" vertex="1" parent="1">
          <mxGeometry x="730" y="300" width="100" height="30" as="geometry" />
        </mxCell>
        <mxCell id="fszhRgOIDEVP251M5NDS-20" value="LAN mit PoE" style="text;html=1;strokeColor=none;fillColor=none;align=center;verticalAlign=middle;whiteSpace=wrap;rounded=0;" vertex="1" parent="1">
          <mxGeometry x="900" y="370" width="80" height="30" as="geometry" />
        </mxCell>
      </root>
    </mxGraphModel>
  </diagram>
</mxfile>
